<?xml version="1.0" encoding="utf-8"?>
<!-- Generator: Adobe Illustrator 16.0.0, SVG Export Plug-In . SVG Version: 6.00 Build 0)  -->
<!DOCTYPE svg PUBLIC "-//W3C//DTD SVG 1.1//EN" "http://www.w3.org/Graphics/SVG/1.1/DTD/svg11.dtd">
<svg version="1.1" id="Capa_1" xmlns="http://www.w3.org/2000/svg" xmlns:xlink="http://www.w3.org/1999/xlink" x="0px" y="0px"
	 width="90px" height="90px" viewBox="0 0 90 90" enable-background="new 0 0 90 90" xml:space="preserve">
<path fill="#FFFFFF" d="M44.999,2.502C21.53,2.502,2.5,21.527,2.5,44.996c0,23.477,19.03,42.502,42.499,42.502
	c23.471,0,42.501-19.025,42.501-42.502C87.5,21.527,68.47,2.502,44.999,2.502z M25.103,39.537h-6.729v4.303h5.808v3.046h-5.808
	v6.613h-3.965V36.505h11.269L25.103,39.537z M42.418,53.499h-3.965v-7.184h-6.904v7.184h-3.967V36.505h3.967v7.103h6.904v-7.103
	h3.965V53.499z M60.335,46.571c0,1.04-0.167,1.997-0.507,2.867c-0.338,0.873-0.822,1.622-1.453,2.253
	c-0.628,0.629-1.394,1.121-2.295,1.468c-0.904,0.352-1.918,0.527-3.046,0.527c-1.136,0-2.155-0.176-3.057-0.527
	c-0.902-0.347-1.668-0.839-2.296-1.468c-0.633-0.631-1.113-1.38-1.449-2.253c-0.333-0.87-0.499-1.827-0.499-2.867V36.505h3.941
	V46.56c0,0.599,0.076,1.134,0.229,1.603c0.149,0.473,0.37,0.871,0.657,1.202c0.287,0.33,0.639,0.582,1.057,0.758
	c0.416,0.176,0.888,0.262,1.417,0.262c0.527,0,1-0.086,1.417-0.262c0.416-0.176,0.768-0.426,1.055-0.752
	c0.289-0.325,0.508-0.724,0.659-1.196c0.152-0.469,0.227-1.004,0.227-1.603V36.505h3.943V46.571z M74.602,53.016
	c-1.019,0.446-2.233,0.671-3.639,0.671c-1.292,0-2.448-0.221-3.471-0.659c-1.023-0.439-1.89-1.047-2.601-1.82
	c-0.712-0.772-1.259-1.69-1.64-2.752c-0.383-1.063-0.572-2.214-0.572-3.459c0-0.949,0.111-1.823,0.334-2.624
	c0.221-0.802,0.525-1.522,0.914-2.164c0.39-0.642,0.851-1.205,1.39-1.691c0.535-0.486,1.116-0.895,1.741-1.225
	c0.627-0.33,1.286-0.577,1.979-0.74c0.691-0.164,1.39-0.245,2.099-0.245c1.018,0,2.017,0.171,2.997,0.513
	c0.979,0.343,1.87,0.867,2.672,1.575l-1.866,2.438c-0.6-0.412-1.22-0.726-1.86-0.939c-0.643-0.214-1.276-0.32-1.907-0.32
	c-0.607,0-1.177,0.104-1.716,0.314c-0.535,0.21-1.008,0.537-1.417,0.98c-0.406,0.443-0.73,1.007-0.969,1.691
	c-0.236,0.685-0.355,1.496-0.355,2.438c0,0.925,0.129,1.729,0.387,2.414c0.256,0.686,0.602,1.256,1.031,1.708
	c0.433,0.457,0.929,0.797,1.487,1.021c0.561,0.227,1.147,0.338,1.761,0.338c0.639,0,1.272-0.117,1.901-0.35
	c0.631-0.232,1.229-0.596,1.796-1.083l2.077,1.983C76.472,51.906,75.621,52.568,74.602,53.016z"/>
</svg>
